<?xml version="1.0" encoding="iso-8859-1"?>
<!-- Uploaded to: SVG Repo, www.svgrepo.com, Generator: SVG Repo Mixer Tools -->
<svg height="800px" width="800px" version="1.1" id="Layer_1" xmlns="http://www.w3.org/2000/svg" xmlns:xlink="http://www.w3.org/1999/xlink" 
	 viewBox="0 0 512.575 512.575" xml:space="preserve">
<g transform="translate(0 1)">
	<path style="fill:#00DA6C;" d="M59.881,417.644L59.881,417.644c0-46.933,38.4-85.333,85.333-85.333h76.8
		c46.933,0,85.333,38.4,85.333,85.333l0,0c0,46.933-38.4,85.333-85.333,85.333h-76.8C98.281,502.977,59.881,464.577,59.881,417.644"
		/>
	<path style="fill:#FFFFFF;" d="M59.881,417.644c0-46.933,38.4-85.333,85.333-85.333h-25.6c-46.933,0-85.333,38.4-85.333,85.333
		s38.4,85.333,85.333,85.333h25.6C98.281,502.977,59.881,464.577,59.881,417.644"/>
	<path style="fill:#00AD55;" d="M247.615,332.31h-25.6c46.933,0,85.333,38.4,85.333,85.333s-38.4,85.333-85.333,85.333h25.6
		c46.933,0,85.333-38.4,85.333-85.333S294.548,332.31,247.615,332.31"/>
	<path style="fill:#63D3FD;" d="M270.655,271.724L270.655,271.724c-30.72-30.72-30.72-80.213,0-110.933l96.427-95.573
		c30.72-30.72,53.76-30.72,83.627,0c35.84,35.84,35.84,94.72,0,131.413l-75.093,75.093
		C338.921,307.564,306.495,307.564,270.655,271.724"/>
	<path style="fill:#3DB9F9;" d="M476.308,65.217C459.241,48.15,436.201,40.47,414.015,43.03
		c11.947,1.707,23.893,9.387,36.693,22.187c35.84,35.84,35.84,94.72,0,131.413l-75.093,75.093
		c-16.213,16.213-31.573,24.747-46.933,26.453c25.6,1.707,52.907-6.827,72.533-26.453l75.093-75.093
		C513.001,159.937,513.001,101.057,476.308,65.217"/>
	<path style="fill:#FFE100;" d="M160.575,296.47L160.575,296.47c-34.987,7.68-75.093-17.067-89.6-60.587L30.868,113.857
		C16.361,69.484,32.575,23.404,67.561,12.31l0,0c34.987-11.093,75.093,15.36,89.6,60.587l40.107,122.027
		C216.895,246.124,197.268,286.23,160.575,296.47"/>
	<path style="fill:#FFFFFF;" d="M160.575,296.47L160.575,296.47c-34.987,7.68-75.093-17.067-89.6-60.587L30.868,113.857
		C16.361,69.484,32.575,23.404,67.561,12.31l0,0C22.335,26.817-1.559,75.457,12.948,119.83l40.107,121.173
		C67.561,285.377,116.201,306.71,160.575,296.47L160.575,296.47C160.575,295.617,160.575,295.617,160.575,296.47
		C160.575,295.617,160.575,295.617,160.575,296.47"/>
	<path style="fill:#FFA800;" d="M215.188,188.097L175.081,66.924C160.575,22.55,111.935-2.196,67.561,12.31
		c34.987-11.093,75.093,15.36,89.6,60.587l40.107,122.027c18.773,48.64,2.56,87.04-29.867,99.84
		C210.068,278.55,234.815,237.59,215.188,188.097"/>
	<path d="M34.281,193.217c-3.413,0-6.827-2.56-8.533-5.973c-1.707-4.267,0.853-9.387,5.12-11.093l162.133-52.907
		c4.267-1.707,9.387,0.853,11.093,5.12c1.707,4.267-0.853,9.387-5.12,11.093L36.841,192.364
		C35.988,193.217,35.135,193.217,34.281,193.217z"/>
	<path d="M138.388,307.564c-29.013,0-57.173-11.947-75.947-33.28c-3.413-3.413-2.56-8.533,0.853-11.947s8.533-2.56,11.947,0.853
		c19.627,23.04,52.907,32.427,83.627,24.747c22.187-5.973,39.253-19.627,48.64-37.547c8.533-17.067,8.533-37.547,0-58.88
		l-40.96-122.027c-6.827-19.627-19.627-34.987-38.4-44.373c-17.92-9.387-39.253-11.093-58.88-4.267
		C50.495,26.817,34.281,40.47,25.748,58.39s-11.093,39.253-4.267,58.88l33.28,101.547c1.707,4.267-0.853,9.387-5.12,11.093
		c-4.267,1.707-9.387-0.853-11.093-5.12L4.415,122.39c-7.68-23.893-5.12-48.64,5.973-71.68
		c11.093-22.187,30.72-39.253,54.613-46.933s49.493-5.973,71.68,5.12s39.253,30.72,46.933,54.613l40.107,121.173
		c10.24,24.747,10.24,50.347-0.853,71.68c-11.093,22.187-32.427,39.253-59.733,46.933
		C154.601,305.857,146.068,307.564,138.388,307.564z"/>
	<path d="M64.148,246.124c0-5.12-3.413-8.533-8.533-8.533s-8.533,3.413-8.533,8.533c0,5.12,3.413,8.533,8.533,8.533
		S64.148,250.39,64.148,246.124"/>
	<path d="M434.495,246.977c-2.56,0-4.267-0.853-5.973-2.56l-120.32-121.173c-3.413-3.413-3.413-8.533,0-11.947
		c3.413-3.413,8.533-3.413,11.947,0l120.32,121.173c3.413,3.413,3.413,8.533,0,11.947
		C438.761,246.124,436.201,246.977,434.495,246.977z"/>
	<path d="M335.508,307.564c-27.307,0-52.053-10.24-71.68-29.867l0,0c-34.133-34.133-34.133-88.747,0-122.88l96.427-95.573
		c16.213-16.213,38.4-25.6,61.44-25.6s44.373,9.387,61.44,25.6c39.253,39.253,39.253,104.107,0,143.36l-75.093,75.093
		C387.561,296.47,362.815,307.564,335.508,307.564z M276.628,265.75c16.213,16.213,36.693,24.747,58.88,24.747
		s43.52-8.533,58.88-24.747l75.093-75.093c33.28-33.28,33.28-86.187,0-119.467c-11.947-13.653-29.867-20.48-47.787-20.48
		c-17.92,0-35.84,6.827-48.64,20.48l-96.427,95.573C249.321,194.07,249.321,238.444,276.628,265.75L276.628,265.75z"/>
	<path d="M179.348,511.51c-5.12,0-8.533-3.413-8.533-8.533V332.31c0-5.12,3.413-8.533,8.533-8.533c5.12,0,8.533,3.413,8.533,8.533
		v170.667C187.881,508.097,183.615,511.51,179.348,511.51z"/>
	<path d="M247.615,511.51h-128c-52.053,0-93.867-41.813-93.867-93.867s41.813-93.867,93.867-93.867h128
		c52.053,0,93.867,41.813,93.867,93.867S299.668,511.51,247.615,511.51z M119.615,340.844c-42.667,0-76.8,34.133-76.8,76.8
		s34.133,76.8,76.8,76.8h128c42.667,0,76.8-34.133,76.8-76.8s-34.133-76.8-76.8-76.8H119.615z"/>
</g>
</svg>