<?xml version="1.0" encoding="iso-8859-1"?>
<!-- Uploaded to: SVG Repo, www.svgrepo.com, Generator: SVG Repo Mixer Tools -->
<svg height="800px" width="800px" version="1.1" id="Layer_1" xmlns="http://www.w3.org/2000/svg" xmlns:xlink="http://www.w3.org/1999/xlink" 
	 viewBox="0 0 496.159 496.159" xml:space="preserve">
<path style="fill:#D61E1E;" d="M248.083,0.003C111.071,0.003,0,111.063,0,248.085c0,137.001,111.07,248.07,248.083,248.07
	c137.006,0,248.076-111.069,248.076-248.07C496.159,111.062,385.089,0.003,248.083,0.003z"/>
<path style="fill:#F4EDED;" d="M248.082,39.002C132.609,39.002,39,132.602,39,248.084c0,115.463,93.609,209.072,209.082,209.072
	c115.468,0,209.077-93.609,209.077-209.072C457.159,132.602,363.55,39.002,248.082,39.002z"/>
<path style="fill:#5B5147;" d="M412.882,164.805H147.268c-0.4,0-0.78,0.009-1.145,0.025c-0.128,0.006-0.245,0.017-0.369,0.024
	c-0.229,0.015-0.459,0.028-0.674,0.048c-0.138,0.014-0.265,0.032-0.397,0.049c-0.185,0.022-0.372,0.043-0.546,0.071
	c-0.135,0.021-0.26,0.048-0.389,0.073c-0.157,0.03-0.316,0.059-0.465,0.093c-0.128,0.03-0.248,0.064-0.37,0.098
	c-0.135,0.037-0.271,0.072-0.398,0.113c-0.12,0.038-0.233,0.081-0.347,0.123c-0.117,0.043-0.235,0.085-0.346,0.133
	c-0.111,0.046-0.215,0.096-0.32,0.146c-0.103,0.049-0.205,0.099-0.302,0.151c-0.102,0.055-0.198,0.113-0.294,0.171
	c-0.089,0.055-0.179,0.111-0.264,0.169c-0.093,0.063-0.182,0.129-0.27,0.196c-0.079,0.06-0.156,0.121-0.23,0.185
	c-0.085,0.072-0.168,0.146-0.25,0.222c-0.068,0.065-0.136,0.131-0.201,0.198c-0.079,0.081-0.156,0.164-0.23,0.25
	c-0.06,0.068-0.119,0.139-0.176,0.21c-0.073,0.09-0.146,0.182-0.215,0.276c-0.052,0.072-0.104,0.146-0.154,0.22
	c-0.069,0.101-0.138,0.202-0.204,0.307c-0.045,0.073-0.09,0.148-0.134,0.223c-0.066,0.112-0.133,0.225-0.197,0.342
	c-0.039,0.072-0.077,0.147-0.116,0.22c-0.065,0.125-0.131,0.251-0.195,0.381c-0.033,0.067-0.065,0.137-0.097,0.205
	c-0.067,0.143-0.135,0.286-0.201,0.435c-0.003,0.007-0.007,0.014-0.01,0.022l0,0c-0.081,0.181-0.161,0.363-0.241,0.551
	c-0.189,0.448-0.423,1.223-0.69,2.227c-3.973-0.855-10.044-2.236-13.464-3.375c-5.378-1.792-7.17-5.976-8.365-1.195
	c-1.07,4.286,15.623,14.332,19.086,16.364l-3.451,14.297c-1.173,4.215-2.317,7.417-3.287,8.18
	c-3.252,2.556-17.895,2.163-15.934,6.573c2.208,4.969,27.336,6.384,26.453,27.289c-2.469,6.804-5.465,13.74-9.721,21.114
	c-6.509,11.284-19.122,23.903-29.28,46.012s-4.781,40.036-4.781,40.036s2.423,0.631,6.836,1.405
	c0.006,0.001,0.012,0.002,0.019,0.003c0.341,0.061,0.694,0.121,1.059,0.182c0.02,0.003,0.039,0.007,0.059,0.01
	c1.132,0.189,2.372,0.385,3.721,0.58c0.048,0.007,0.098,0.014,0.146,0.021c0.374,0.054,0.755,0.107,1.145,0.16
	c0.132,0.019,0.267,0.036,0.4,0.054c0.321,0.043,0.647,0.087,0.979,0.13c0.161,0.021,0.323,0.041,0.486,0.062
	c0.313,0.04,0.632,0.079,0.954,0.118c0.178,0.021,0.354,0.043,0.535,0.065c0.334,0.04,0.676,0.079,1.02,0.117
	c0.172,0.02,0.342,0.04,0.517,0.059c0.458,0.051,0.924,0.1,1.398,0.149c0.106,0.011,0.214,0.022,0.321,0.033
	c0.48,0.049,0.967,0.097,1.461,0.143c0.205,0.02,0.414,0.038,0.621,0.057c0.354,0.032,0.708,0.064,1.068,0.096
	c0.237,0.02,0.478,0.04,0.718,0.06c0.34,0.028,0.683,0.055,1.03,0.083c0.254,0.02,0.509,0.039,0.766,0.058
	c0.351,0.025,0.705,0.05,1.062,0.076c0.254,0.017,0.507,0.034,0.764,0.051c0.391,0.025,0.788,0.049,1.186,0.073
	c0.23,0.014,0.457,0.028,0.689,0.042c0.629,0.036,1.265,0.069,1.912,0.1c0.639,0.031,1.288,0.053,1.944,0.071
	c0.217,0.006,0.437,0.008,0.655,0.013c0.446,0.009,0.892,0.018,1.344,0.022c0.254,0.002,0.512,0.002,0.768,0.002
	c0.423,0.001,0.846,0.001,1.272-0.002c0.271-0.002,0.544-0.005,0.817-0.009c0.417-0.006,0.836-0.013,1.257-0.022
	c0.277-0.007,0.553-0.013,0.831-0.021c0.431-0.012,0.863-0.026,1.296-0.041c0.266-0.01,0.531-0.019,0.797-0.03
	c0.466-0.019,0.933-0.041,1.4-0.063c0.231-0.011,0.461-0.021,0.692-0.034c0.566-0.03,1.132-0.063,1.698-0.097
	c0.135-0.008,0.27-0.015,0.404-0.023c0.713-0.045,1.425-0.093,2.135-0.145c0.087-0.007,0.173-0.014,0.26-0.02
	c0.615-0.046,1.228-0.093,1.838-0.143c0.2-0.017,0.398-0.034,0.598-0.051c0.497-0.042,0.992-0.084,1.484-0.129
	c0.228-0.021,0.452-0.042,0.678-0.063c0.463-0.043,0.924-0.087,1.381-0.132c0.232-0.023,0.463-0.046,0.693-0.069
	c0.455-0.045,0.904-0.092,1.352-0.139c0.218-0.023,0.435-0.045,0.652-0.069c0.464-0.05,0.922-0.101,1.378-0.152
	c0.19-0.021,0.382-0.043,0.571-0.064c0.484-0.055,0.96-0.111,1.434-0.167c0.156-0.019,0.316-0.037,0.471-0.056
	c1.238-0.149,2.433-0.3,3.574-0.451c0.028-0.003,0.058-0.008,0.086-0.011l0,0c7.342-0.969,12.454-1.89,12.454-1.89
	s21.263-50.481,36.687-86.646h36.374c14.94,0,22.836-7.171,26.999-22.707l5.441-20.317h71.916c0.029,0,0.058,0,0.058,0
	s3.504-1.149,3.485-1.793c0,0-0.045,0.002-0.113,0.006c-0.033,0.001-0.074,0.004-0.121,0.006c-0.024,0.001-0.046,0.002-0.073,0.004
	c-0.057,0.002-0.119,0.005-0.188,0.008h-0.007c-0.069,0.003-0.144,0.006-0.223,0.009c-0.009,0-0.018,0-0.027,0.001
	c-0.082,0.003-0.169,0.006-0.258,0.009c-0.005,0-0.01,0-0.015,0c-0.085,0.002-0.173,0.005-0.263,0.007c-0.015,0-0.029,0-0.044,0.001
	c-0.089,0.002-0.18,0.003-0.271,0.004c-0.013,0-0.025,0-0.038,0c-0.093,0.001-0.186,0.002-0.279,0.002h-0.037
	c-0.093,0-0.185,0-0.275-0.001c-0.012,0-0.023,0-0.034,0c-0.09-0.001-0.178-0.003-0.263-0.007c-0.012,0-0.023-0.001-0.035-0.001
	c-0.083-0.003-0.163-0.006-0.24-0.012c-0.012,0-0.023-0.001-0.035-0.002c-0.075-0.005-0.146-0.011-0.211-0.018
	c-0.01-0.001-0.018-0.003-0.027-0.004c-0.035-0.003-0.063-0.009-0.094-0.013h63.921c0,0,4.182-9.562,4.182-25.695
	C417.064,174.964,412.882,164.805,412.882,164.805z M267.994,225.325l-4.398,16.417c-2.381,8.891-6.9,12.996-15.451,12.996h-28.366
	c-3.877,0-6.397-2.693-6.287-6.307c5.333-12.43,9.202-21.305,9.913-22.573c2.739-4.883,7.52-7.272,14.094-7.272h28.768
	C268.003,220.068,268.742,222.532,267.994,225.325z"/>
<path style="fill:#D61E1E;" d="M85.851,60.394c-9.086,7.86-17.596,16.37-25.457,25.456l349.914,349.914
	c9.086-7.861,17.596-16.37,25.456-25.456L85.851,60.394z"/>
</svg>