<?xml version="1.0" standalone="no"?>
<!DOCTYPE svg PUBLIC "-//W3C//DTD SVG 20010904//EN"
 "http://www.w3.org/TR/2001/REC-SVG-20010904/DTD/svg10.dtd">
<svg version="1.0" xmlns="http://www.w3.org/2000/svg"
 width="1280.000000pt" height="977.000000pt" viewBox="0 0 1280.000000 977.000000"
 preserveAspectRatio="xMidYMid meet">
<metadata>
Created by potrace 1.15, written by Peter Selinger 2001-2017
</metadata>
<g transform="translate(0.000000,977.000000) scale(0.100000,-0.100000)"
fill="#000000" stroke="none">
<path d="M2763 9755 c-77 -21 -148 -60 -193 -106 -40 -42 -163 -277 -219 -421
-94 -239 -93 -392 1 -455 18 -12 76 -33 129 -46 114 -29 183 -63 187 -93 5
-37 -26 -37 -95 2 l-64 36 -46 -16 c-54 -19 -141 -21 -213 -5 -73 16 -114 5
-162 -43 -67 -67 -89 -128 -97 -277 l-7 -129 -48 -82 c-56 -97 -65 -134 -42
-179 19 -37 45 -49 136 -63 82 -13 98 -22 115 -62 25 -59 118 -116 190 -116
43 0 51 4 116 66 l70 66 50 -7 c65 -9 93 9 127 83 23 49 26 70 26 152 0 52 -4
133 -8 180 l-8 85 41 65 c64 101 82 145 90 229 5 42 13 87 20 99 6 12 46 64
88 114 159 190 262 364 292 490 20 83 14 196 -13 254 -71 152 -273 230 -463
179z"/>
<path d="M4015 9453 c-16 -8 -52 -36 -79 -62 -115 -109 -181 -266 -174 -413 3
-74 9 -93 52 -185 26 -56 47 -106 45 -111 -3 -7 -19 -5 -44 4 -122 42 -213
-10 -330 -190 -92 -141 -112 -204 -87 -272 l16 -44 -31 -32 c-173 -184 -143
-298 109 -423 96 -47 120 -64 146 -101 35 -49 61 -56 115 -28 68 36 242 225
287 314 17 33 17 40 4 65 -13 25 -12 33 21 105 75 166 78 188 38 285 -14 36
-24 67 -21 71 3 3 24 -4 47 -15 64 -33 92 -28 146 25 89 90 179 247 230 404
24 71 28 103 29 195 1 95 -2 117 -22 160 -36 77 -85 122 -192 173 -194 92
-248 105 -305 75z"/>
<path d="M1084 9032 c-129 -46 -259 -195 -353 -406 -35 -80 -36 -84 -43 -251
-4 -93 -10 -198 -14 -233 -6 -57 -4 -65 16 -87 28 -29 80 -41 109 -25 12 6 36
27 55 47 28 31 38 35 77 35 24 -1 60 -6 79 -12 86 -25 182 -1 232 58 34 41 45
77 57 184 11 93 21 119 83 211 60 88 81 144 81 208 -2 194 -199 336 -379 271z"/>
<path d="M5063 8441 c-60 -43 -102 -98 -214 -276 -126 -202 -149 -249 -156
-319 -19 -188 136 -422 284 -428 21 0 54 7 73 17 20 11 69 21 117 25 69 6 86
11 115 34 69 58 189 203 221 266 31 63 32 68 30 185 -2 130 -22 245 -54 312
-24 50 -119 126 -223 178 -89 45 -137 46 -193 6z"/>
<path d="M984 7952 c-6 -4 -16 -17 -23 -30 -12 -22 -15 -22 -120 -16 -119 7
-165 -5 -196 -52 -20 -31 -129 -343 -144 -413 -47 -221 -27 -409 59 -544 16
-26 25 -47 20 -47 -16 0 -40 -31 -40 -53 0 -29 83 -105 158 -145 76 -41 98
-38 160 20 l44 40 33 -32 32 -31 39 16 c63 26 105 65 130 119 80 175 68 337
-36 502 -46 72 -48 99 -10 99 20 0 30 10 52 55 37 78 62 207 53 284 -12 110
-56 183 -130 217 -43 20 -64 23 -81 11z"/>
<path d="M3170 7787 c-19 -7 -44 -27 -58 -47 -20 -29 -23 -43 -18 -82 9 -68
-11 -102 -78 -134 -65 -31 -190 -134 -211 -174 -8 -16 -15 -38 -15 -49 0 -21
5 -23 79 -35 39 -7 61 -22 61 -43 0 -8 -40 -57 -90 -108 -49 -51 -90 -99 -90
-107 0 -7 9 -33 20 -57 28 -61 25 -76 -19 -111 -68 -55 -81 -169 -28 -249 90
-136 389 -209 560 -137 44 18 70 57 86 130 13 60 36 88 112 137 28 17 57 45
66 62 8 17 21 78 28 136 12 109 17 122 95 264 37 68 42 84 37 121 -17 124
-148 309 -293 412 -100 71 -178 94 -244 71z"/>
<path d="M1963 7719 c-81 -40 -165 -152 -179 -238 -6 -36 -3 -43 24 -71 20
-20 40 -30 61 -30 16 0 32 -4 35 -8 12 -20 -20 -90 -93 -199 -93 -141 -110
-183 -87 -218 22 -34 65 -54 147 -69 77 -15 119 -38 119 -65 0 -25 41 -41 105
-41 54 0 105 -15 105 -32 0 -4 9 -8 21 -8 19 0 20 4 14 40 -6 37 -4 43 25 68
92 77 116 124 172 332 38 143 44 213 25 281 -28 94 -89 151 -255 235 -101 52
-168 58 -239 23z"/>
<path d="M9640 7604 c-232 -30 -322 -114 -361 -340 -29 -166 26 -476 106 -593
l31 -46 72 2 c39 1 72 0 72 -2 0 -2 -19 -25 -41 -52 -72 -83 -78 -109 -57
-275 12 -97 12 -98 -12 -123 l-24 -25 23 -78 c29 -99 119 -287 159 -334 44
-49 72 -55 125 -23 24 13 101 38 173 55 165 39 209 56 239 92 33 39 39 97 21
198 -10 53 -16 146 -16 249 0 181 -11 244 -62 346 -51 103 -85 127 -178 123
-33 -1 -64 2 -70 8 -6 6 20 43 75 104 100 111 124 165 132 286 10 144 -50 326
-131 404 -32 31 -42 34 -99 36 -34 1 -114 -4 -177 -12z"/>
<path d="M10871 7559 c-140 -27 -236 -155 -248 -330 -11 -147 23 -291 124
-539 60 -146 64 -174 43 -281 -13 -64 -12 -72 14 -178 18 -70 26 -121 22 -138
-4 -16 -28 -73 -54 -128 -47 -100 -47 -100 -47 -207 0 -99 2 -108 24 -132 16
-17 35 -26 56 -26 40 0 78 -29 96 -72 21 -54 58 -104 85 -117 62 -28 175 -3
231 51 l32 30 104 -7 c117 -8 138 -2 162 45 20 39 19 70 -6 159 -24 86 -22
116 16 247 20 67 25 102 21 143 -6 63 -50 158 -86 183 -14 10 -69 24 -125 33
-83 13 -108 21 -151 50 -56 39 -63 40 -145 23 -46 -9 -61 -9 -73 1 -24 20 -20
31 22 48 28 12 68 16 170 14 142 -1 179 7 219 50 57 62 79 198 62 394 -15 190
-55 407 -84 464 -79 157 -298 257 -484 220z"/>
<path d="M4578 7478 c-8 -18 -44 -67 -78 -108 -91 -108 -170 -293 -170 -399 0
-92 96 -227 193 -271 50 -23 122 -25 157 -5 35 20 38 19 45 -14 12 -55 64 -80
117 -58 41 17 109 90 139 148 12 24 34 82 49 129 15 47 44 123 64 170 43 102
54 162 36 196 -18 33 -80 60 -170 74 -86 14 -114 26 -153 68 -28 29 -135 84
-187 97 -22 5 -28 1 -42 -27z"/>
<path d="M8400 6966 c-193 -58 -260 -120 -341 -313 -83 -201 -81 -257 20 -468
54 -113 77 -138 148 -163 27 -10 71 -36 98 -59 76 -65 139 -67 248 -10 103 54
193 177 219 298 12 59 14 47 -51 314 -11 44 -29 119 -41 167 -40 172 -102 258
-183 257 -23 0 -76 -10 -117 -23z"/>
<path d="M1717 6823 c-4 -3 -7 -20 -7 -37 0 -21 -28 -78 -92 -181 -50 -82 -96
-153 -101 -157 -6 -3 -34 -4 -63 -1 -75 8 -100 -1 -163 -61 -57 -54 -149 -118
-196 -136 -27 -10 -33 -2 -13 18 17 17 -24 57 -98 93 -61 31 -62 31 -50 61 9
26 8 32 -8 44 -41 30 -236 10 -317 -31 -24 -13 -27 -20 -31 -89 -5 -69 -18
-106 -39 -106 -4 0 -26 18 -48 40 -22 22 -44 40 -51 40 -17 0 -60 -51 -60 -71
0 -24 16 -33 75 -39 49 -5 50 -6 53 -40 4 -44 -40 -118 -143 -246 -41 -50 -79
-104 -85 -120 -17 -43 -4 -112 43 -238 44 -117 48 -158 32 -282 -7 -60 -7 -60
26 -88 26 -22 39 -26 63 -22 113 23 120 21 170 -26 66 -64 62 -108 -10 -108
-14 0 -23 -4 -20 -9 3 -5 -16 -11 -43 -15 -56 -7 -198 -54 -258 -85 -70 -35
-108 -76 -143 -153 -18 -40 -46 -82 -61 -95 -35 -30 -50 -90 -56 -228 -7 -140
9 -239 52 -336 42 -93 43 -124 6 -236 -19 -58 -31 -120 -35 -183 -3 -52 -13
-138 -21 -190 -55 -343 -16 -531 139 -685 79 -78 155 -122 383 -219 193 -83
303 -101 463 -76 59 10 94 24 232 97 53 28 60 27 133 -37 67 -58 88 -55 164
25 33 36 64 65 68 65 5 0 16 -20 26 -44 10 -23 31 -55 47 -71 26 -25 36 -27
108 -29 44 0 83 -4 86 -7 4 -3 2 -18 -4 -33 -27 -73 -4 -135 84 -222 105 -103
280 -185 489 -230 138 -29 254 -14 395 52 110 50 193 114 332 255 126 128 157
151 219 163 62 12 88 51 56 86 -14 16 -13 20 13 42 16 13 52 61 81 106 63 98
91 122 141 122 42 0 62 18 79 72 7 20 19 42 28 50 9 7 29 33 45 57 43 68 39
130 -12 230 -22 43 -40 88 -40 100 0 14 26 50 70 96 78 82 83 100 50 173 -33
74 -80 130 -118 143 -37 12 -57 -1 -47 -30 14 -38 27 -103 21 -108 -10 -11
-64 46 -146 157 -75 101 -121 142 -148 133 -25 -9 -43 18 -36 53 6 30 1 39
-51 93 -37 39 -68 62 -88 66 -78 16 -96 26 -127 75 -17 26 -38 51 -46 54 -48
18 -92 -13 -119 -84 -22 -59 -42 -80 -75 -80 -39 0 -51 20 -60 101 -9 85 -32
120 -83 133 -31 8 -42 6 -77 -17 -22 -15 -40 -31 -40 -36 0 -19 -60 -52 -80
-46 -23 7 -60 73 -60 106 0 13 9 57 21 98 26 92 22 148 -15 196 -15 19 -33 35
-40 35 -12 0 -98 -130 -159 -240 -17 -30 -59 -135 -93 -233 -76 -218 -95 -250
-160 -266 -77 -20 -100 -37 -129 -95 -23 -47 -29 -78 -40 -214 -18 -214 -31
-245 -131 -313 -86 -58 -107 -90 -154 -234 -33 -99 -50 -125 -111 -166 -15
-10 -34 -45 -52 -92 -24 -66 -34 -81 -77 -112 -27 -20 -54 -34 -58 -31 -5 3
-12 25 -15 48 -3 24 -20 88 -38 143 -59 184 -44 281 90 573 100 218 109 262
53 270 -52 8 -83 -38 -116 -172 -22 -89 -41 -126 -66 -126 -51 0 -44 87 11
145 24 25 31 44 38 103 7 53 16 82 35 107 41 53 35 69 -34 94 -33 12 -60 26
-60 30 0 4 9 16 20 26 38 35 26 63 -64 150 -125 120 -136 185 -51 326 24 40
41 77 39 81 -11 17 -44 6 -84 -27 -49 -41 -55 -42 -70 -14 -14 25 6 52 62 80
20 10 39 23 43 28 9 16 -21 77 -46 95 -22 16 -23 18 -6 27 22 13 22 29 -1 29
-10 0 -56 -13 -102 -30 -93 -33 -141 -37 -159 -16 -12 15 6 23 83 41 17 3 42
15 56 25 24 17 28 28 34 97 7 85 3 93 -51 93 -35 0 -53 17 -29 26 28 11 18 20
-41 38 -99 31 -136 66 -69 66 19 0 115 -15 213 -34 218 -42 282 -50 323 -41
23 5 68 41 149 119 132 127 182 154 337 181 138 24 265 20 349 -11 94 -35 113
-35 139 -1 23 31 26 95 12 212 -7 55 -6 63 18 95 25 34 36 56 56 105 13 34 37
31 77 -7 32 -31 35 -32 61 -18 26 15 38 34 61 93 10 24 15 27 61 27 27 0 50
-2 50 -5 0 -2 -21 -23 -46 -47 -93 -86 -194 -234 -194 -286 0 -11 7 -28 17
-37 16 -16 31 -16 89 0 14 5 31 -2 53 -21 42 -35 39 -70 -9 -102 -32 -21 -36
-22 -45 -7 -22 38 -44 60 -52 52 -4 -5 -11 -47 -14 -93 -6 -100 -13 -109 -95
-130 -67 -18 -108 -51 -125 -102 -11 -32 -10 -37 10 -53 11 -9 44 -20 72 -24
37 -5 68 -19 112 -51 117 -83 132 -88 227 -84 206 9 236 7 265 -20 15 -14 42
-55 61 -91 18 -37 45 -76 59 -87 64 -51 200 -50 406 3 181 46 251 80 298 145
28 39 35 65 57 218 3 18 18 47 34 65 26 29 33 32 87 31 32 -1 73 -5 91 -9 66
-15 141 78 142 176 1 217 -301 603 -592 758 -106 57 -115 58 -123 21 -4 -17
-10 -30 -14 -28 -4 2 -37 18 -72 37 -85 45 -103 39 -94 -28 8 -58 -4 -68 -83
-77 -56 -7 -78 6 -91 53 -9 30 -7 34 15 39 25 6 34 34 11 34 -20 0 -94 -55
-107 -79 -13 -26 -38 -17 -74 25 -14 18 -38 35 -52 38 -37 10 -98 -22 -120
-61 -10 -20 -25 -33 -37 -33 -17 0 -18 5 -13 35 7 33 5 35 -20 35 -27 0 -103
-68 -150 -134 l-20 -30 -23 32 c-12 18 -23 44 -24 59 -2 24 4 29 56 47 75 27
97 47 97 90 0 70 -35 67 -135 -13 -27 -22 -53 -37 -57 -35 -12 8 -9 57 5 75
18 24 67 46 120 54 87 13 137 79 137 183 0 75 -27 118 -93 151 -45 22 -53 23
-99 12 -28 -6 -91 -34 -139 -62 -98 -57 -161 -82 -183 -73 -12 5 -6 24 31 98
l46 92 -48 72 c-34 51 -54 72 -69 72 -11 0 -69 -25 -128 -55 -111 -57 -154
-67 -165 -39 -3 9 -1 46 6 81 15 82 2 103 -65 103 -37 0 -44 4 -63 35 -20 34
-31 42 -44 28z"/>
<path d="M4204 6666 c-117 -58 -132 -72 -153 -146 -19 -65 -44 -94 -127 -151
-89 -60 -98 -81 -59 -141 25 -38 27 -45 18 -85 -14 -61 3 -79 136 -147 59 -30
130 -74 157 -96 56 -47 114 -80 142 -80 26 0 137 73 155 102 8 13 17 57 20 99
7 99 25 138 97 216 33 35 60 73 60 84 0 11 -10 33 -21 49 -21 27 -21 30 -5 54
9 14 23 46 32 72 15 45 15 48 -4 73 -15 20 -27 26 -53 24 -19 -1 -63 -3 -99
-5 l-65 -3 3 54 c3 65 -12 80 -78 81 -35 0 -71 -12 -156 -54z"/>
<path d="M12313 6344 c-61 -22 -126 -84 -153 -146 -28 -66 -25 -123 21 -318
l33 -142 -19 -47 c-25 -62 -24 -154 2 -190 34 -45 104 -81 178 -92 84 -12 116
-31 155 -92 16 -26 41 -52 55 -59 146 -66 270 460 186 785 -40 153 -126 266
-228 301 -58 20 -173 20 -230 0z"/>
<path d="M8662 5890 c-30 -5 -81 -20 -114 -35 -61 -28 -61 -28 -163 -15 -117
14 -165 5 -192 -36 -14 -22 -15 -45 -8 -172 4 -81 9 -185 10 -232 4 -131 44
-244 101 -289 39 -31 70 -27 111 14 36 36 36 36 57 17 75 -68 201 -58 310 26
115 87 138 154 118 348 -10 97 -20 135 -57 229 -25 62 -45 123 -45 134 0 18
-6 21 -37 20 -21 -1 -62 -5 -91 -9z"/>
<path d="M9998 5751 c-152 -49 -349 -196 -404 -302 -22 -44 -21 -89 5 -176 20
-65 21 -76 9 -130 -7 -32 -13 -101 -13 -153 0 -90 2 -100 42 -190 22 -52 49
-126 58 -165 41 -166 95 -209 297 -236 126 -17 248 9 318 68 70 58 91 170 45
233 -33 45 -31 67 10 119 19 24 35 52 35 63 0 10 -25 68 -56 127 -72 137 -70
146 26 138 60 -5 71 -3 79 12 24 43 -45 177 -145 283 -59 62 -66 87 -39 151
31 74 8 134 -61 163 -45 19 -137 17 -206 -5z"/>
<path d="M11175 5373 c-89 -13 -209 -45 -253 -67 -65 -33 -118 -96 -140 -166
-14 -44 -17 -94 -17 -255 0 -110 3 -212 7 -226 4 -14 21 -43 38 -64 34 -43 37
-65 14 -101 -22 -32 -5 -56 26 -36 26 16 54 15 114 -3 68 -21 81 -19 116 15
l31 30 113 -6 c113 -7 114 -7 140 19 36 36 34 77 -10 217 -20 63 -38 143 -41
177 l-6 62 51 -6 c47 -5 53 -3 81 25 38 37 41 88 13 180 -46 145 -151 223
-277 205z"/>
<path d="M12243 5246 c-60 -19 -96 -48 -126 -104 -36 -67 -52 -172 -42 -295 6
-87 9 -99 30 -113 35 -23 19 -51 -46 -82 -43 -21 -63 -40 -95 -89 -64 -95 -89
-178 -89 -298 0 -90 3 -106 28 -158 18 -36 42 -67 64 -82 l36 -24 38 19 38 20
30 -50 c42 -68 69 -84 132 -77 57 7 153 48 186 79 26 25 30 60 8 78 -13 11 -9
17 29 46 86 65 149 176 187 328 25 98 36 367 21 524 -12 133 -26 150 -159 191
-69 21 -104 39 -133 65 -44 39 -68 43 -137 22z"/>
<path d="M8700 5054 c-6 -14 -10 -33 -10 -42 0 -30 -16 -45 -41 -39 -127 31
-169 39 -181 34 -8 -3 -20 -24 -27 -46 -10 -34 -9 -49 1 -78 12 -34 12 -36
-20 -62 -17 -15 -32 -35 -32 -45 0 -9 16 -55 35 -102 40 -97 44 -145 18 -247
-18 -67 -18 -68 5 -111 13 -24 41 -60 62 -81 33 -33 45 -38 82 -38 24 1 70 13
103 28 33 14 117 37 186 49 69 13 135 29 146 35 32 16 125 188 117 214 -3 12
-28 52 -55 88 -60 82 -69 105 -69 182 0 77 -17 107 -102 178 -132 110 -198
136 -218 83z"/>
<path d="M5695 5007 c-52 -18 -97 -41 -165 -87 -79 -54 -126 -76 -234 -110
-152 -49 -207 -102 -267 -260 -77 -201 -104 -230 -308 -336 -103 -52 -154 -91
-177 -135 -18 -36 -18 -111 1 -173 17 -56 19 -123 6 -158 -5 -13 -30 -47 -56
-77 -55 -64 -57 -94 -7 -99 20 -2 42 4 61 17 58 42 77 43 115 11 41 -37 50
-38 42 -4 -8 31 13 29 29 -3 11 -21 11 -21 35 -2 47 37 96 57 220 88 69 17
152 45 186 61 57 28 75 44 202 183 40 44 70 61 163 92 88 30 126 57 210 148
38 42 84 85 102 96 18 11 83 34 145 51 136 36 179 57 243 117 138 129 145 307
17 418 -123 107 -446 200 -563 162z"/>
<path d="M11287 4373 c-24 -25 -28 -25 -70 -14 -73 21 -97 -6 -97 -108 0 -20
-5 -42 -12 -49 -26 -26 -53 -11 -137 76 -119 122 -114 119 -148 88 -15 -14
-46 -36 -70 -48 -41 -22 -42 -24 -48 -83 -4 -33 -3 -84 3 -113 14 -78 -7 -69
-123 52 -113 117 -154 146 -208 146 -109 0 -188 -98 -174 -219 6 -58 32 -89
107 -132 74 -41 98 -78 81 -122 -16 -41 -36 -33 -71 28 -36 62 -80 94 -99 71
-20 -24 6 -99 55 -156 49 -58 48 -77 -6 -105 -38 -20 -37 -20 -44 18 -3 17
-17 55 -30 84 -41 87 -91 121 -98 66 -2 -20 -9 -28 -22 -28 -15 0 -23 12 -33
54 -25 97 -59 122 -113 84 -32 -23 -89 -43 -105 -37 -7 3 -20 23 -30 44 -24
54 -61 88 -78 71 -9 -10 -7 -16 13 -31 l25 -19 -21 -28 c-29 -39 -73 -42 -129
-8 -48 27 -53 44 -30 85 8 14 14 33 15 44 0 17 -6 18 -62 13 -35 -4 -75 -9
-90 -13 -26 -6 -28 -4 -28 26 l0 33 -69 -6 c-86 -7 -249 -61 -372 -123 -210
-105 -389 -256 -449 -378 -29 -58 -32 -73 -28 -129 3 -49 10 -75 31 -106 27
-41 28 -41 88 -41 72 0 110 -19 135 -66 17 -32 17 -38 1 -136 -16 -93 -16
-108 -3 -153 22 -71 62 -115 182 -195 153 -102 279 -161 359 -167 84 -7 104
-1 161 50 97 88 154 96 307 47 138 -44 166 -46 280 -15 59 15 121 25 154 24
70 -3 88 13 78 70 -9 52 -34 83 -101 126 -61 39 -63 47 -39 135 16 59 19 110
8 110 -4 0 -21 -14 -39 -31 l-31 -30 -27 31 c-32 39 -34 75 -3 94 42 27 66 28
96 7 39 -28 67 -26 87 4 14 22 15 33 4 88 -14 76 -61 195 -100 260 -26 41 -27
47 -11 47 10 0 32 -5 49 -11 32 -11 42 -31 42 -87 0 -35 37 -82 63 -82 8 0 26
9 41 21 39 31 51 15 80 -112 l26 -109 -40 -75 c-37 -70 -40 -79 -34 -131 6
-44 12 -58 29 -66 18 -8 27 -5 48 16 27 27 55 33 85 17 9 -5 78 -28 152 -51
155 -48 176 -58 245 -111 64 -48 109 -108 185 -245 98 -175 100 -177 295 -180
186 -3 361 -31 352 -57 -2 -7 -37 -15 -82 -20 -44 -4 -81 -10 -83 -12 -3 -3 1
-12 8 -20 12 -15 8 -16 -35 -13 l-49 3 -18 -50 c-28 -77 -24 -112 13 -133 40
-21 99 -71 99 -83 0 -5 -23 -9 -51 -9 -47 0 -54 3 -107 54 -61 57 -102 78
-102 52 0 -8 5 -18 11 -22 6 -4 -5 -15 -27 -28 -21 -12 -45 -33 -53 -47 -14
-25 -12 -28 27 -67 43 -43 51 -69 30 -90 -20 -20 -33 -14 -57 28 -25 45 -57
68 -73 52 -7 -7 -5 -31 7 -75 11 -43 16 -87 13 -126 -6 -87 -38 -122 -164
-186 -97 -49 -99 -51 -98 -85 0 -19 4 -43 8 -53 7 -15 2 -17 -50 -17 -76 0
-89 -8 -80 -51 16 -74 17 -120 7 -169 -10 -45 -9 -56 9 -90 21 -41 26 -95 11
-118 -14 -23 -64 -11 -72 18 -11 41 -10 150 3 191 11 37 9 42 -18 76 -17 20
-34 38 -40 40 -14 5 -74 -90 -74 -118 0 -14 11 -52 24 -85 18 -45 23 -71 19
-109 -3 -34 0 -63 11 -89 39 -94 -1 -287 -89 -426 -16 -25 -47 -80 -71 -123
l-42 -79 -21 24 c-47 50 -61 85 -68 169 -5 72 -10 86 -35 115 -28 32 -30 41
-43 183 -15 163 -29 208 -79 261 -19 19 -40 46 -47 60 -21 40 -15 154 14 265
54 208 48 254 -45 351 -77 81 -88 116 -88 290 0 75 -6 166 -15 211 -17 89
-103 343 -117 343 -17 0 -86 -121 -93 -163 -25 -160 -28 -172 -56 -199 -27
-27 -62 -35 -85 -20 -6 4 -26 31 -44 60 -34 56 -55 72 -93 72 -38 0 -76 -37
-110 -109 -18 -36 -39 -67 -48 -69 -32 -6 -59 31 -70 93 -7 40 -20 72 -39 95
-26 32 -30 34 -47 19 -23 -20 -58 -33 -163 -60 -47 -12 -117 -37 -157 -55 -61
-29 -72 -38 -75 -62 -3 -25 -6 -27 -57 -30 -64 -4 -124 -42 -185 -117 -31 -37
-48 -48 -103 -65 -36 -11 -68 -18 -71 -16 -2 3 10 30 28 60 17 31 29 60 25 66
-9 15 -62 12 -94 -4 -15 -8 -53 -42 -84 -76 -70 -76 -72 -96 -17 -196 22 -40
40 -83 40 -95 0 -12 -26 -48 -65 -88 -97 -101 -115 -163 -74 -258 12 -26 24
-73 28 -103 6 -54 7 -56 52 -77 53 -26 79 -70 105 -180 8 -36 25 -83 37 -105
22 -39 20 -48 -17 -61 -19 -7 6 -59 36 -75 65 -36 90 -67 150 -186 136 -272
270 -427 436 -503 119 -56 394 -69 572 -28 188 44 300 133 300 240 0 41 4 42
94 19 59 -15 67 -15 98 0 19 9 50 32 68 51 19 19 37 35 42 35 4 0 24 -33 44
-73 60 -119 76 -127 164 -82 79 40 93 36 176 -53 62 -66 87 -85 161 -120 154
-73 246 -84 488 -56 296 33 405 72 521 188 114 114 155 218 208 531 15 83 33
175 41 205 9 33 15 99 15 163 0 124 6 140 82 224 61 68 111 172 144 301 30
120 32 209 4 245 -13 16 -20 40 -20 69 0 63 -23 131 -59 177 -39 49 -159 141
-242 186 -35 19 -57 35 -49 35 8 1 -4 10 -27 20 -24 11 -43 23 -43 27 0 21 36
57 74 74 56 25 89 24 135 -7 28 -18 49 -24 77 -22 52 4 74 38 84 125 8 80 18
101 98 207 71 94 112 170 119 225 4 31 0 49 -20 83 -32 56 -86 218 -94 285 -8
72 3 83 67 70 27 -5 56 -7 65 -4 21 9 19 60 -5 88 l-19 24 -51 -28 c-79 -43
-99 -13 -63 100 17 53 17 53 -8 79 -47 50 -218 134 -273 134 -25 0 -48 -31
-42 -56 6 -21 2 -23 -41 -29 -27 -3 -68 -14 -93 -24 -39 -15 -45 -21 -43 -44
1 -15 -2 -27 -7 -27 -17 0 -133 137 -160 190 -39 77 -75 108 -140 120 -30 6
-58 14 -62 18 -5 5 -28 86 -53 182 -31 124 -41 178 -34 191 25 48 -5 70 -44
32z"/>
<path d="M6546 3874 c-256 -47 -353 -196 -258 -398 41 -86 71 -118 184 -192
150 -99 182 -138 223 -264 36 -112 66 -146 173 -198 88 -42 113 -73 151 -179
15 -43 32 -87 39 -98 23 -43 101 -106 191 -154 125 -68 154 -91 193 -156 18
-30 36 -55 39 -55 4 0 12 7 19 15 7 8 19 15 26 15 12 0 12 -4 2 -20 -17 -27
-3 -36 26 -16 42 27 69 20 114 -29 31 -35 48 -45 71 -45 27 0 31 3 31 28 0 15
-11 51 -25 80 -41 89 -36 119 45 244 72 111 57 159 -106 328 -154 160 -168
191 -183 396 -14 200 -44 249 -224 376 -38 27 -87 74 -114 110 -81 107 -153
173 -219 198 -49 20 -81 24 -189 26 -83 2 -158 -2 -209 -12z"/>
</g>
</svg>
